<svg aria-hidden="true" style="position: absolute; width: 0; height: 0; overflow: hidden;" version="1.1" xmlns="http://www.w3.org/2000/svg" xmlns:xlink="http://www.w3.org/1999/xlink">
<defs>
<symbol id="icon-logo" viewBox="0 0 345 32">
<path fill="#fbfbfb" style="fill: var(--color1, #fbfbfb)" d="M29.082 0.314h-4.009c-1.237 0-2.24 0.983-2.24 2.195v3.929c0 1.212 1.003 2.195 2.24 2.195h4.009c1.237 0 2.24-0.983 2.24-2.195v-3.929c0-1.212-1.003-2.195-2.24-2.195z"></path>
<path fill="#fbfbfb" style="fill: var(--color1, #fbfbfb)" d="M6.73 23.040h-4.318c-1.332 0-2.412 0.983-2.412 2.195v3.929c0 1.212 1.080 2.195 2.412 2.195h4.318c1.332 0 2.412-0.983 2.412-2.195v-3.929c0-1.212-1.080-2.195-2.412-2.195z"></path>
<path fill="#fbfbfb" style="fill: var(--color1, #fbfbfb)" d="M6.25 11.582h-4.009c-1.237 0-2.24 0.983-2.24 2.195v3.929c0 1.212 1.003 2.195 2.24 2.195h4.009c1.237 0 2.24-0.983 2.24-2.195v-3.929c0-1.212-1.003-2.195-2.24-2.195z"></path>
<path fill="#fbfbfb" style="fill: var(--color1, #fbfbfb)" d="M17.766 22.978h-4.009c-1.237 0-2.24 0.983-2.24 2.195l-0 3.929c0 1.212 1.003 2.195 2.241 2.195h4.009c1.237 0 2.24-0.983 2.24-2.195v-3.929c0-1.212-1.003-2.195-2.24-2.195z"></path>
<path fill="#fbfbfb" style="fill: var(--color1, #fbfbfb)" d="M6.25 0.086h-4.009c-1.237 0-2.24 0.983-2.24 2.195v3.929c0 1.212 1.003 2.195 2.24 2.195h4.009c1.237 0 2.24-0.983 2.24-2.195v-3.929c0-1.212-1.003-2.195-2.24-2.195z"></path>
<path fill="#fbfbfb" style="fill: var(--color1, #fbfbfb)" d="M18.076 11.697h-4.009c-1.237 0-2.24 0.983-2.24 2.195v3.929c0 1.212 1.003 2.195 2.24 2.195h4.009c1.237 0 2.24-0.983 2.24-2.195v-3.929c0-1.212-1.003-2.195-2.24-2.195z"></path>
<path fill="#fbfbfb" style="fill: var(--color1, #fbfbfb)" d="M29.333 22.978h-4.009c-1.237 0-2.24 0.983-2.24 2.195v3.929c0 1.212 1.003 2.195 2.24 2.195h4.009c1.237 0 2.24-0.983 2.24-2.195v-3.929c0-1.212-1.003-2.195-2.24-2.195z"></path>
<path fill="#fbfbfb" style="fill: var(--color1, #fbfbfb)" d="M17.591 0.224h-4.009c-1.237 0-2.24 0.983-2.24 2.195v3.929c0 1.212 1.003 2.195 2.24 2.195h4.009c1.237 0 2.24-0.984 2.24-2.196v-3.929c0-1.212-1.003-2.195-2.24-2.195z"></path>
<path fill="#fbfbfb" style="fill: var(--color1, #fbfbfb)" d="M29.044 11.926h-4.009c-1.237 0-2.24 0.983-2.24 2.195v3.929c0 1.212 1.003 2.195 2.24 2.195h4.009c1.237 0 2.24-0.983 2.24-2.195v-3.929c0-1.212-1.003-2.195-2.24-2.195z"></path>
<path fill="#fbfbfb" style="fill: var(--color1, #fbfbfb)" d="M59.112 30.222c-7.748 0-12.89-5.227-12.89-13.369 0-7.964 5.068-13.298 12.706-13.298 6.427 0 10.943 3.662 11.604 9.173h-5.325c-0.514-3.164-2.975-4.942-6.28-4.942-4.627 0-7.381 3.627-7.381 9.067 0 5.973 3.085 9.138 7.565 9.138 3.893 0 6.39-2.133 6.647-5.333v-0.356h-7.161v-3.982h12.119v3.271c-0.22 6.364-4.847 10.631-11.604 10.631z"></path>
<path fill="#fbfbfb" style="fill: var(--color1, #fbfbfb)" d="M73.927 29.867v-25.956h12.89c6.573 0 9.181 3.093 9.181 7.573 0 4.018-2.938 5.938-6.353 6.4v0.107c2.203 0.533 3.195 1.707 4.113 4.018 1.175 2.916 1.359 6.4 2.864 7.644v0.213h-5.876c-1.249-1.209-1.542-5.013-2.203-7.324-0.661-2.382-2.093-2.667-4.774-2.667h-4.7v9.991h-5.141zM79.068 15.751h7.198c3.011 0 4.407-1.707 4.407-3.911 0-2.418-1.726-3.804-4.407-3.804h-7.198v7.716z"></path>
<path fill="#fbfbfb" style="fill: var(--color1, #fbfbfb)" d="M99.412 29.867v-25.956h18.324v4.124h-13.183v6.187h11.898v4.124h-11.898v7.289h13.367v4.231h-18.508z"></path>
<path fill="#fbfbfb" style="fill: var(--color1, #fbfbfb)" d="M121.489 29.867v-25.956h18.325v4.124h-13.183v6.187h11.898v4.124h-11.898v7.289h13.367v4.231h-18.508z"></path>
<path fill="#fbfbfb" style="fill: var(--color1, #fbfbfb)" d="M143.567 29.867v-25.956h6.243l8.887 14.329c2.718 4.338 3.048 5.76 3.048 5.76h0.11l-0.074-20.089h5.141v25.956h-6.28l-9.217-14.756c-2.093-3.342-2.644-5.369-2.644-5.369h-0.074v20.124h-5.141z"></path>
<path fill="#fbfbfb" style="fill: var(--color1, #fbfbfb)" d="M170.791 29.867v-5.262h5.361v5.262h-5.361z"></path>
<path fill="#fbfbfb" style="fill: var(--color1, #fbfbfb)" d="M180.012 29.867v-25.956h5.141v10.382h12.302v-10.382h5.141v25.956h-5.141v-11.449h-12.302v11.449h-5.141z"></path>
<path fill="#fbfbfb" style="fill: var(--color1, #fbfbfb)" d="M204.795 29.867l10.283-25.956h5.582l10.428 25.956h-5.508l-2.167-5.973h-11.127l-2.167 5.973h-5.324zM213.755 19.769h8.19l-2.388-6.4c-1.652-4.729-1.689-5.582-1.689-5.582h-0.073c0 0 0 0.853-1.653 5.582l-2.388 6.4z"></path>
<path fill="#fbfbfb" style="fill: var(--color1, #fbfbfb)" d="M233.278 29.867v-25.956h12.889c6.574 0 9.182 3.093 9.182 7.573 0 4.018-2.939 5.938-6.354 6.4v0.107c2.203 0.533 3.195 1.707 4.114 4.018 1.175 2.916 1.358 6.4 2.864 7.644v0.213h-5.876c-1.25-1.209-1.543-5.013-2.204-7.324-0.661-2.382-2.092-2.667-4.773-2.667h-4.7v9.991h-5.141zM238.42 15.751h7.198c3.010 0 4.405-1.707 4.405-3.911 0-2.418-1.724-3.804-4.405-3.804h-7.198v7.716z"></path>
<path fill="#fbfbfb" style="fill: var(--color1, #fbfbfb)" d="M264.213 29.867l-9.842-25.956h5.509c0 0 5.324 14.542 5.876 16.32 0.882 2.844 1.285 4.302 1.285 4.302h0.073c-0.036 0 0.368-1.458 1.285-4.302 0.588-1.778 5.692-16.32 5.692-16.32h5.324l-9.474 25.956h-5.73z"></path>
<path fill="#fbfbfb" style="fill: var(--color1, #fbfbfb)" d="M281.522 29.867v-25.956h18.325v4.124h-13.184v6.187h11.899v4.124h-11.899v7.289h13.367v4.231h-18.508z"></path>
<path fill="#fbfbfb" style="fill: var(--color1, #fbfbfb)" d="M312.795 30.222c-6.83 0-10.944-3.591-10.944-8.924h5.876c-0.073 3.022 1.984 4.693 5.068 4.693 3.268 0 4.811-1.244 4.811-3.093s-1.323-2.631-6.023-3.876c-4.297-1.138-8.997-2.489-8.997-7.822 0-4.231 3.82-7.644 9.842-7.644 6.206 0 10.172 3.378 10.172 8.142h-5.692c-0.036-2.524-1.799-3.911-4.48-3.911-2.606 0-4.332 1.28-4.332 2.987 0 2.027 1.431 2.667 5.177 3.698 5.545 1.493 10.025 2.098 10.025 7.893 0 4.658-4.37 7.858-10.501 7.858z"></path>
<path fill="#fbfbfb" style="fill: var(--color1, #fbfbfb)" d="M331.669 29.867v-21.724h-8.116v-4.231h21.335v4.231h-8.078v21.724h-5.141z"></path>
</symbol>
<symbol id="blocks-icon-1" viewBox="0 0 32 32">
<path fill="#7a3145" style="fill: var(--color1, #7a3145)" d="M28.923 16c0 7.137-5.786 12.923-12.923 12.923s-12.923-5.786-12.923-12.923c0-7.137 5.786-12.923 12.923-12.923s12.923 5.786 12.923 12.923z"></path>
<path fill="none" stroke="#7a3145" style="stroke: var(--color1, #7a3145)" stroke-linejoin="miter" stroke-linecap="butt" stroke-miterlimit="4" stroke-width="3.0769" d="M30.462 16c0 7.987-6.475 14.462-14.462 14.462s-14.462-6.475-14.462-14.462c0-7.987 6.475-14.462 14.462-14.462s14.462 6.475 14.462 14.462z"></path>
<path fill="#fbfbfb" style="fill: var(--color2, #fbfbfb)" d="M17.625 11.353v8.954h-1.611v-7.374h-0.054l-2.091 1.34v-1.49l2.224-1.43h1.532z"></path>
</symbol>
<symbol id="blocks-icon-2" viewBox="0 0 32 32">
<path fill="#7a3145" style="fill: var(--color1, #7a3145)" d="M28.923 16c0 7.137-5.786 12.923-12.923 12.923s-12.923-5.786-12.923-12.923c0-7.137 5.786-12.923 12.923-12.923s12.923 5.786 12.923 12.923z"></path>
<path fill="none" stroke="#7a3145" style="stroke: var(--color1, #7a3145)" stroke-linejoin="miter" stroke-linecap="butt" stroke-miterlimit="4" stroke-width="3.0769" d="M30.462 16c0 7.987-6.475 14.462-14.462 14.462s-14.462-6.475-14.462-14.462c0-7.987 6.475-14.462 14.462-14.462s14.462 6.475 14.462 14.462z"></path>
<path fill="#fbfbfb" style="fill: var(--color2, #fbfbfb)" d="M12.867 20.308v-1.166l3.113-3.053c0.293-0.3 0.537-0.567 0.733-0.799 0.2-0.232 0.351-0.457 0.451-0.673 0.1-0.22 0.15-0.455 0.15-0.703 0-0.28-0.064-0.523-0.192-0.727s-0.305-0.361-0.529-0.469c-0.22-0.108-0.473-0.162-0.757-0.162-0.296 0-0.555 0.060-0.775 0.18s-0.393 0.29-0.517 0.511c-0.12 0.22-0.18 0.483-0.18 0.787h-1.538c0-0.565 0.128-1.056 0.385-1.472 0.26-0.421 0.619-0.747 1.076-0.98s0.98-0.349 1.569-0.349c0.605 0 1.134 0.112 1.587 0.337s0.805 0.533 1.058 0.925c0.252 0.389 0.379 0.833 0.379 1.334 0 0.336-0.064 0.667-0.192 0.992-0.128 0.321-0.355 0.679-0.679 1.076-0.32 0.393-0.771 0.867-1.352 1.424l-1.538 1.569v0.066h3.894v1.352h-6.142z"></path>
</symbol>
<symbol id="blocks-icon-3" viewBox="0 0 32 32">
<path fill="#7a3145" style="fill: var(--color1, #7a3145)" d="M28.923 16c0 7.137-5.786 12.923-12.923 12.923s-12.923-5.786-12.923-12.923c0-7.137 5.786-12.923 12.923-12.923s12.923 5.786 12.923 12.923z"></path>
<path fill="none" stroke="#7a3145" style="stroke: var(--color1, #7a3145)" stroke-linejoin="miter" stroke-linecap="butt" stroke-miterlimit="4" stroke-width="3.0769" d="M30.462 16c0 7.987-6.475 14.462-14.462 14.462s-14.462-6.475-14.462-14.462c0-7.987 6.475-14.462 14.462-14.462s14.462 6.475 14.462 14.462z"></path>
<path fill="#fbfbfb" style="fill: var(--color2, #fbfbfb)" d="M16.082 20.428c-0.629 0-1.188-0.106-1.677-0.319-0.489-0.216-0.875-0.517-1.16-0.901-0.28-0.385-0.427-0.829-0.439-1.334h1.635c0.012 0.244 0.090 0.457 0.234 0.637 0.148 0.176 0.345 0.314 0.589 0.415 0.244 0.096 0.517 0.144 0.817 0.144 0.32 0 0.603-0.056 0.847-0.168 0.248-0.116 0.443-0.272 0.583-0.469 0.14-0.2 0.21-0.431 0.21-0.691 0-0.272-0.072-0.513-0.216-0.721-0.14-0.208-0.345-0.371-0.613-0.487s-0.591-0.174-0.968-0.174h-0.799v-1.25h0.799c0.305 0 0.575-0.054 0.811-0.162s0.421-0.258 0.553-0.451c0.132-0.196 0.198-0.425 0.198-0.685 0-0.252-0.058-0.473-0.174-0.661-0.112-0.188-0.272-0.335-0.481-0.439s-0.453-0.156-0.733-0.156c-0.272 0-0.527 0.050-0.763 0.15-0.232 0.096-0.421 0.234-0.565 0.415-0.14 0.18-0.214 0.397-0.222 0.649h-1.556c0.008-0.501 0.15-0.941 0.427-1.322 0.28-0.381 0.655-0.677 1.124-0.889 0.469-0.216 0.994-0.325 1.575-0.325 0.593 0 1.11 0.112 1.55 0.337 0.445 0.22 0.787 0.519 1.028 0.895 0.244 0.377 0.367 0.791 0.367 1.244 0 0.505-0.148 0.928-0.445 1.268s-0.687 0.565-1.172 0.673v0.066c0.625 0.088 1.104 0.32 1.436 0.697 0.337 0.377 0.505 0.845 0.505 1.406 0 0.501-0.142 0.95-0.427 1.346-0.284 0.393-0.675 0.701-1.172 0.925s-1.066 0.337-1.707 0.337z"></path>
</symbol>
</defs>
</svg>
